<svg id="Capa_1" data-name="Capa 1" xmlns="http://www.w3.org/2000/svg" viewBox="0 0 180.68 120"><defs><style>.cls-1{fill:#ff6100;}</style></defs><title>Ria_Main_Logo_Colour_RGB</title><path class="cls-1" d="M75.82,161.32v33.41h24.54V165.41c0-12.95,7.23-21.41,24.82-21.95V118.91C92.86,119.46,75.82,136.23,75.82,161.32Z" transform="translate(-75.82 -75.82)"/><path class="cls-1" d="M217.64,117.82c-22.78.14-39.14,16.5-39.14,39,0,22.23,13.64,36.82,36.68,39l16.09-12.14.55.28v10.77H256.5V156.82C256.5,133.23,241,117.68,217.64,117.82Zm0,54c-8.46,0-14.59-6.27-14.59-15s6.13-15,14.59-15,14.31,6.27,14.31,15S226,171.82,217.64,171.82Z" transform="translate(-75.82 -75.82)"/><rect class="cls-1" x="65.59" y="43.09" width="24.54" height="75.82"/><path class="cls-1" d="M153.68,75.82a16.37,16.37,0,1,0,16.37,16.36A16.36,16.36,0,0,0,153.68,75.82Z" transform="translate(-75.82 -75.82)"/></svg>